<mxfile host="app.diagrams.net" modified="2023-06-09T14:50:45.721Z" agent="Mozilla/5.0 (Windows NT 10.0; Win64; x64) AppleWebKit/537.36 (KHTML, like Gecko) Chrome/113.0.0.0 Safari/537.36" etag="Buwq6Svx8_MPcSw8AJrk" version="21.3.7" type="device">
  <diagram name="Page-1" id="2YBvvXClWsGukQMizWep">
    <mxGraphModel dx="467" dy="297" grid="1" gridSize="10" guides="1" tooltips="1" connect="1" arrows="1" fold="1" page="1" pageScale="1" pageWidth="850" pageHeight="1100" math="0" shadow="0">
      <root>
        <mxCell id="0" />
        <mxCell id="1" parent="0" />
        <mxCell id="eYRkHH78k8rB--u_LtcB-1" value="Registrar" style="swimlane;whiteSpace=wrap;html=1;fontSize=16;" parent="1" vertex="1">
          <mxGeometry x="160" y="50" width="360" height="950" as="geometry" />
        </mxCell>
        <mxCell id="eYRkHH78k8rB--u_LtcB-2" value="" style="edgeStyle=none;curved=1;rounded=0;orthogonalLoop=1;jettySize=auto;html=1;fontSize=12;startSize=8;endSize=8;exitX=0.5;exitY=1;exitDx=0;exitDy=0;" parent="eYRkHH78k8rB--u_LtcB-1" source="eYRkHH78k8rB--u_LtcB-8" edge="1">
          <mxGeometry relative="1" as="geometry">
            <mxPoint x="165" y="180" as="sourcePoint" />
            <mxPoint x="165" y="230" as="targetPoint" />
          </mxGeometry>
        </mxCell>
        <mxCell id="eYRkHH78k8rB--u_LtcB-3" value="System" style="swimlane;whiteSpace=wrap;html=1;fontSize=16;" parent="1" vertex="1">
          <mxGeometry x="520" y="50" width="360" height="950" as="geometry" />
        </mxCell>
        <mxCell id="eYRkHH78k8rB--u_LtcB-4" style="edgeStyle=none;curved=1;rounded=0;orthogonalLoop=1;jettySize=auto;html=1;fontSize=12;startSize=8;endSize=8;" parent="1" edge="1">
          <mxGeometry relative="1" as="geometry">
            <mxPoint x="400" y="299.77" as="sourcePoint" />
            <mxPoint x="640" y="299.77" as="targetPoint" />
          </mxGeometry>
        </mxCell>
        <mxCell id="eYRkHH78k8rB--u_LtcB-5" value="act&amp;nbsp; Room Rental subsystem" style="shape=umlFrame;whiteSpace=wrap;html=1;pointerEvents=0;fontSize=16;width=220;height=20;" parent="1" vertex="1">
          <mxGeometry x="80" y="10" width="860" height="1020" as="geometry" />
        </mxCell>
        <mxCell id="eYRkHH78k8rB--u_LtcB-6" style="edgeStyle=none;curved=1;rounded=0;orthogonalLoop=1;jettySize=auto;html=1;exitX=0.518;exitY=0.829;exitDx=0;exitDy=0;entryX=0.5;entryY=0;entryDx=0;entryDy=0;fontSize=12;startSize=8;endSize=8;exitPerimeter=0;" parent="1" source="eYRkHH78k8rB--u_LtcB-7" target="eYRkHH78k8rB--u_LtcB-8" edge="1">
          <mxGeometry relative="1" as="geometry">
            <mxPoint x="325" y="130" as="targetPoint" />
          </mxGeometry>
        </mxCell>
        <mxCell id="eYRkHH78k8rB--u_LtcB-7" value="" style="ellipse;html=1;shape=startState;fillColor=#000000;strokeColor=#ff0000;fontSize=16;" parent="1" vertex="1">
          <mxGeometry x="310" y="80" width="30" height="30" as="geometry" />
        </mxCell>
        <mxCell id="eYRkHH78k8rB--u_LtcB-8" value="Go to &quot;Student Portal Room Management&quot; page" style="rounded=1;whiteSpace=wrap;html=1;absoluteArcSize=1;arcSize=14;strokeWidth=2;fontSize=16;" parent="1" vertex="1">
          <mxGeometry x="250" y="140" width="150" height="70" as="geometry" />
        </mxCell>
        <mxCell id="eYRkHH78k8rB--u_LtcB-9" value="Click &quot;Payement Information&quot;" style="rounded=1;whiteSpace=wrap;html=1;absoluteArcSize=1;arcSize=14;strokeWidth=2;fontSize=16;" parent="1" vertex="1">
          <mxGeometry x="250" y="280" width="150" height="40" as="geometry" />
        </mxCell>
        <mxCell id="eYRkHH78k8rB--u_LtcB-10" style="edgeStyle=none;curved=1;rounded=0;orthogonalLoop=1;jettySize=auto;html=1;exitX=0.5;exitY=1;exitDx=0;exitDy=0;entryX=0.5;entryY=0;entryDx=0;entryDy=0;entryPerimeter=0;fontSize=12;startSize=8;endSize=8;" parent="1" source="eYRkHH78k8rB--u_LtcB-12" target="eYRkHH78k8rB--u_LtcB-21" edge="1">
          <mxGeometry relative="1" as="geometry" />
        </mxCell>
        <mxCell id="eYRkHH78k8rB--u_LtcB-11" style="edgeStyle=orthogonalEdgeStyle;rounded=0;orthogonalLoop=1;jettySize=auto;html=1;exitX=1;exitY=0.5;exitDx=0;exitDy=0;entryX=1;entryY=0.5;entryDx=0;entryDy=0;fontSize=12;startSize=8;endSize=8;exitPerimeter=0;" parent="1" source="eYRkHH78k8rB--u_LtcB-21" target="eYRkHH78k8rB--u_LtcB-8" edge="1">
          <mxGeometry relative="1" as="geometry">
            <Array as="points">
              <mxPoint x="820" y="425" />
              <mxPoint x="820" y="175" />
            </Array>
          </mxGeometry>
        </mxCell>
        <mxCell id="eYRkHH78k8rB--u_LtcB-12" value="Display list of payment" style="rounded=1;whiteSpace=wrap;html=1;absoluteArcSize=1;arcSize=14;strokeWidth=2;fontSize=16;" parent="1" vertex="1">
          <mxGeometry x="640" y="268.75" width="150" height="62.5" as="geometry" />
        </mxCell>
        <mxCell id="eYRkHH78k8rB--u_LtcB-13" style="edgeStyle=none;curved=1;rounded=0;orthogonalLoop=1;jettySize=auto;html=1;exitX=0.5;exitY=1;exitDx=0;exitDy=0;entryX=0.5;entryY=0;entryDx=0;entryDy=0;entryPerimeter=0;fontSize=12;startSize=8;endSize=8;" parent="1" source="eYRkHH78k8rB--u_LtcB-14" target="eYRkHH78k8rB--u_LtcB-26" edge="1">
          <mxGeometry relative="1" as="geometry" />
        </mxCell>
        <mxCell id="eYRkHH78k8rB--u_LtcB-14" value="Click &quot;Pay Now&quot; button" style="rounded=1;whiteSpace=wrap;html=1;absoluteArcSize=1;arcSize=14;strokeWidth=2;fontSize=16;" parent="1" vertex="1">
          <mxGeometry x="250" y="405" width="150" height="40" as="geometry" />
        </mxCell>
        <mxCell id="eYRkHH78k8rB--u_LtcB-15" style="edgeStyle=none;curved=1;rounded=0;orthogonalLoop=1;jettySize=auto;html=1;exitX=0.063;exitY=0.016;exitDx=0;exitDy=0;entryX=0.5;entryY=0;entryDx=0;entryDy=0;fontSize=12;startSize=8;endSize=8;exitPerimeter=0;" parent="1" source="eYRkHH78k8rB--u_LtcB-27" target="eYRkHH78k8rB--u_LtcB-30" edge="1">
          <mxGeometry relative="1" as="geometry">
            <mxPoint x="325" y="680" as="sourcePoint" />
          </mxGeometry>
        </mxCell>
        <mxCell id="eYRkHH78k8rB--u_LtcB-64" style="edgeStyle=none;curved=1;rounded=0;orthogonalLoop=1;jettySize=auto;html=1;exitX=0.5;exitY=1;exitDx=0;exitDy=0;entryX=0.5;entryY=0;entryDx=0;entryDy=0;fontSize=12;startSize=8;endSize=8;" parent="1" source="eYRkHH78k8rB--u_LtcB-18" target="eYRkHH78k8rB--u_LtcB-62" edge="1">
          <mxGeometry relative="1" as="geometry" />
        </mxCell>
        <mxCell id="eYRkHH78k8rB--u_LtcB-18" value="Update the payment information" style="rounded=1;whiteSpace=wrap;html=1;absoluteArcSize=1;arcSize=14;strokeWidth=2;fontSize=16;" parent="1" vertex="1">
          <mxGeometry x="640" y="705" width="150" height="70" as="geometry" />
        </mxCell>
        <mxCell id="eYRkHH78k8rB--u_LtcB-19" value="" style="ellipse;html=1;shape=endState;fillColor=#000000;strokeColor=#ff0000;fontSize=16;" parent="1" vertex="1">
          <mxGeometry x="700" y="950" width="30" height="30" as="geometry" />
        </mxCell>
        <mxCell id="eYRkHH78k8rB--u_LtcB-20" style="edgeStyle=none;curved=1;rounded=0;orthogonalLoop=1;jettySize=auto;html=1;exitX=0;exitY=0.5;exitDx=0;exitDy=0;exitPerimeter=0;entryX=1;entryY=0.5;entryDx=0;entryDy=0;fontSize=12;startSize=8;endSize=8;" parent="1" source="eYRkHH78k8rB--u_LtcB-21" target="eYRkHH78k8rB--u_LtcB-14" edge="1">
          <mxGeometry relative="1" as="geometry" />
        </mxCell>
        <mxCell id="eYRkHH78k8rB--u_LtcB-21" value="Proceed ?" style="strokeWidth=2;html=1;shape=mxgraph.flowchart.decision;whiteSpace=wrap;fontSize=16;" parent="1" vertex="1">
          <mxGeometry x="665" y="375" width="100" height="100" as="geometry" />
        </mxCell>
        <mxCell id="eYRkHH78k8rB--u_LtcB-22" value="(False)" style="text;html=1;align=center;verticalAlign=middle;resizable=0;points=[];autosize=1;strokeColor=none;fillColor=none;fontSize=16;" parent="1" vertex="1">
          <mxGeometry x="758" y="396" width="70" height="30" as="geometry" />
        </mxCell>
        <mxCell id="eYRkHH78k8rB--u_LtcB-23" value="(True)" style="text;html=1;align=center;verticalAlign=middle;resizable=0;points=[];autosize=1;strokeColor=none;fillColor=none;fontSize=16;" parent="1" vertex="1">
          <mxGeometry x="600" y="395" width="70" height="30" as="geometry" />
        </mxCell>
        <mxCell id="eYRkHH78k8rB--u_LtcB-24" style="edgeStyle=orthogonalEdgeStyle;rounded=0;orthogonalLoop=1;jettySize=auto;html=1;exitX=0;exitY=0.5;exitDx=0;exitDy=0;exitPerimeter=0;entryX=0;entryY=0.5;entryDx=0;entryDy=0;fontSize=12;startSize=8;endSize=8;" parent="1" source="eYRkHH78k8rB--u_LtcB-26" target="eYRkHH78k8rB--u_LtcB-9" edge="1">
          <mxGeometry relative="1" as="geometry">
            <Array as="points">
              <mxPoint x="190" y="540" />
              <mxPoint x="190" y="300" />
            </Array>
          </mxGeometry>
        </mxCell>
        <mxCell id="eYRkHH78k8rB--u_LtcB-26" value="Proceed ?" style="strokeWidth=2;html=1;shape=mxgraph.flowchart.decision;whiteSpace=wrap;fontSize=16;" parent="1" vertex="1">
          <mxGeometry x="275" y="490" width="100" height="100" as="geometry" />
        </mxCell>
        <mxCell id="eYRkHH78k8rB--u_LtcB-27" value="(True)" style="text;html=1;align=center;verticalAlign=middle;resizable=0;points=[];autosize=1;strokeColor=none;fillColor=none;fontSize=16;" parent="1" vertex="1">
          <mxGeometry x="320" y="590" width="70" height="30" as="geometry" />
        </mxCell>
        <mxCell id="eYRkHH78k8rB--u_LtcB-28" value="(False)" style="text;html=1;align=center;verticalAlign=middle;resizable=0;points=[];autosize=1;strokeColor=none;fillColor=none;fontSize=16;" parent="1" vertex="1">
          <mxGeometry x="205" y="510" width="70" height="30" as="geometry" />
        </mxCell>
        <mxCell id="eYRkHH78k8rB--u_LtcB-29" style="edgeStyle=none;curved=1;rounded=0;orthogonalLoop=1;jettySize=auto;html=1;exitX=1;exitY=0.5;exitDx=0;exitDy=0;entryX=0;entryY=0.5;entryDx=0;entryDy=0;fontSize=12;startSize=8;endSize=8;" parent="1" source="eYRkHH78k8rB--u_LtcB-30" target="eYRkHH78k8rB--u_LtcB-18" edge="1">
          <mxGeometry relative="1" as="geometry" />
        </mxCell>
        <mxCell id="eYRkHH78k8rB--u_LtcB-30" value="Click &quot;Submit&quot; button" style="rounded=1;whiteSpace=wrap;html=1;absoluteArcSize=1;arcSize=14;strokeWidth=2;fontSize=16;" parent="1" vertex="1">
          <mxGeometry x="250" y="720" width="150" height="40" as="geometry" />
        </mxCell>
        <mxCell id="eYRkHH78k8rB--u_LtcB-31" style="edgeStyle=none;curved=1;rounded=0;orthogonalLoop=1;jettySize=auto;html=1;exitX=0.75;exitY=1;exitDx=0;exitDy=0;fontSize=12;startSize=8;endSize=8;" parent="1" source="eYRkHH78k8rB--u_LtcB-30" target="eYRkHH78k8rB--u_LtcB-30" edge="1">
          <mxGeometry relative="1" as="geometry" />
        </mxCell>
        <mxCell id="eYRkHH78k8rB--u_LtcB-65" style="edgeStyle=none;curved=1;rounded=0;orthogonalLoop=1;jettySize=auto;html=1;exitX=0.5;exitY=1;exitDx=0;exitDy=0;entryX=0.5;entryY=0;entryDx=0;entryDy=0;fontSize=12;startSize=8;endSize=8;" parent="1" source="eYRkHH78k8rB--u_LtcB-62" target="eYRkHH78k8rB--u_LtcB-19" edge="1">
          <mxGeometry relative="1" as="geometry" />
        </mxCell>
        <mxCell id="eYRkHH78k8rB--u_LtcB-62" value="Display notification" style="rounded=1;whiteSpace=wrap;html=1;absoluteArcSize=1;arcSize=14;strokeWidth=2;fontSize=16;" parent="1" vertex="1">
          <mxGeometry x="640" y="840" width="150" height="70" as="geometry" />
        </mxCell>
      </root>
    </mxGraphModel>
  </diagram>
</mxfile>
